<svg width="1048" height="1204" viewBox="0 0 1048 1204" fill="none" xmlns="http://www.w3.org/2000/svg">
<path fill-rule="evenodd" clip-rule="evenodd" d="M67.7458 622.097L279.606 870.675L483.589 595.789L277.511 357.239L67.7458 622.097ZM50.3232 622.462L280.098 892.06L501.052 595.589L276.956 335.604L50.3232 622.462Z" fill="white" fill-opacity="0.3"/>
<path fill-rule="evenodd" clip-rule="evenodd" d="M314.381 292.055L522.585 536.462L731.657 270.732L522.124 21.3332L314.381 292.055ZM297.228 292.44L523.038 557.515L748.849 270.509L521.61 0.0346804L297.228 292.44Z" fill="white" fill-opacity="0.3"/>
<path fill-rule="evenodd" clip-rule="evenodd" d="M558.473 593.231L770.332 841.809L974.316 566.923L768.237 328.373L558.473 593.231ZM541.05 593.596L770.825 863.194L991.779 566.723L767.683 306.738L541.05 593.596Z" fill="white" fill-opacity="0.3"/>
<path d="M369.58 613.418L305.785 774.181L241.989 612.751C239.331 606.748 233.35 602.745 227.369 602.745C220.724 602.745 217.401 606.748 220.059 612.751L295.816 804.199V933.609C295.816 940.28 299.804 944.282 306.449 944.282C312.43 944.282 316.417 940.28 316.417 933.609V804.199L392.174 613.418C394.832 606.748 391.51 602.745 384.864 602.745C378.219 602.745 372.238 606.748 369.58 613.418Z" fill="white"/>
<path d="M575.181 613.418C575.181 606.748 571.194 602.745 564.548 602.745H498.095C488.127 602.745 481.481 609.416 481.481 619.422V927.605C481.481 937.611 488.127 944.282 498.095 944.282H564.548C571.194 944.282 575.181 940.28 575.181 933.609C575.181 926.938 571.194 922.936 564.548 922.936H501.417V777.516H539.96C545.941 777.516 549.929 773.514 549.929 766.843C549.929 760.84 545.941 756.837 539.96 756.837H501.417V624.091H564.548C571.194 624.091 575.181 620.089 575.181 613.418Z" fill="white"/>
<path d="M743.661 772.847L737.68 766.843C689.834 718.814 680.53 697.468 680.53 674.121C680.53 646.772 702.46 624.758 729.706 624.758C752.965 624.758 772.901 641.435 777.553 662.781C778.882 668.785 782.869 672.787 789.514 672.787C795.495 672.787 799.482 668.785 798.818 662.781C793.501 629.428 762.933 604.747 729.706 604.747C691.163 604.747 659.93 636.099 659.93 674.788C659.93 719.482 688.505 748.165 716.415 775.515L722.396 781.518C770.243 829.547 779.546 850.893 779.546 874.24C779.546 901.59 757.617 923.603 730.371 923.603C707.112 923.603 687.176 906.926 682.524 885.58C681.195 879.577 677.208 875.574 671.227 875.574C664.582 875.574 660.594 879.577 661.259 885.58C666.575 918.934 697.144 943.615 730.371 943.615C768.914 943.615 800.147 912.263 800.147 873.573C800.147 828.88 771.572 800.196 743.661 772.847Z" fill="white"/>
<path d="M131.154 960.73C129.376 960.73 127.895 959.982 126.709 958.487C125.524 956.693 124.783 954.6 124.486 952.208C124.486 946.825 127.154 944.134 132.488 944.134C134.859 944.134 136.785 944.882 138.267 946.377C140.045 947.573 141.083 949.217 141.379 951.311C141.379 953.703 140.342 955.945 138.267 958.038C136.489 959.832 134.414 960.73 132.044 960.73H131.154ZM124.931 1074.65C123.746 1074.95 122.264 1075.1 120.486 1075.1C116.337 1075.1 112.632 1073.91 109.372 1071.51C106.408 1069.12 104.334 1065.98 103.149 1062.1C101.963 1059.1 101.37 1053.72 101.37 1045.95C104.334 1022.33 108.631 1003.49 114.262 989.435C116.633 984.053 118.856 980.315 120.93 978.222C123.005 976.428 125.227 976.278 127.598 977.773C128.487 978.072 129.08 978.82 129.376 980.016C129.969 980.913 130.117 981.81 129.821 982.707L127.154 989.435C123.301 997.508 120.337 1006.03 118.263 1015C116.485 1023.67 114.707 1033.99 112.928 1045.95V1049.09C112.928 1051.18 113.225 1054.02 113.817 1057.61C114.114 1059.7 115.151 1061.35 116.929 1062.54C118.707 1063.44 120.634 1063.59 122.708 1062.99C125.672 1062.69 128.339 1061.95 130.71 1060.75C133.377 1059.25 136.341 1057.16 139.601 1054.47C149.677 1046.4 160.642 1035.48 172.497 1021.73L184.499 1007.38C188.056 1002.59 190.871 999.003 192.945 996.611C194.131 995.116 196.205 993.172 199.169 990.78C200.651 989.285 202.429 989.435 204.503 991.229C206.282 992.425 206.874 994.219 206.282 996.611C205.689 998.704 204.8 1000.35 203.614 1001.54C193.835 1014.4 185.092 1025.17 177.387 1033.84C169.978 1042.51 161.828 1050.58 152.937 1058.06C147.602 1062.84 142.713 1066.58 138.267 1069.27C133.822 1071.96 129.376 1073.76 124.931 1074.65Z" fill="white"/>
<path d="M186.076 1085.42C184.89 1086.32 183.409 1086.76 181.631 1086.76C180.149 1086.76 178.815 1086.32 177.63 1085.42C176.444 1084.22 175.703 1082.58 175.407 1080.48C175.111 1079.29 174.962 1077.34 174.962 1074.65C175.555 1069.27 176.148 1065.53 176.741 1063.44L179.408 1054.02C181.482 1045.05 183.705 1036.83 186.076 1029.35C191.41 1014.4 199.708 991.976 210.97 962.075C211.859 959.982 214.082 955.646 217.638 949.068C218.527 947.573 219.713 946.676 221.195 946.377C222.676 945.779 224.01 945.928 225.195 946.825C227.863 948.32 228.604 950.862 227.418 954.45L224.751 959.832L198.523 1028.46C198.227 1029.35 197.634 1031 196.745 1033.39C195.856 1035.78 195.411 1038.02 195.411 1040.12C195.411 1042.21 195.708 1043.86 196.3 1045.05C205.487 1028.31 217.045 1011.71 230.974 995.266C237.494 988.089 243.421 983.006 248.756 980.016C250.83 978.82 253.053 978.222 255.424 978.222C259.573 978.222 262.981 980.614 265.648 985.398C266.834 987.79 267.723 991.528 268.316 996.611L270.538 1018.59C271.131 1023.97 272.465 1028.61 274.539 1032.49C276.021 1035.78 278.54 1036.83 282.096 1035.63C286.542 1034.14 291.432 1031 296.766 1026.21L304.323 1019.04L319.882 1004.24C324.031 1000.65 326.995 997.957 328.773 996.163C330.551 994.369 331.737 993.172 332.329 992.574C334.404 990.481 336.478 990.481 338.553 992.574C340.627 994.369 341.22 996.462 340.331 998.854C339.442 1001.25 338.108 1003.34 336.33 1005.13C333.663 1007.82 324.476 1016.35 308.769 1030.7L300.322 1038.32C294.988 1043.41 289.061 1046.55 282.541 1047.74L278.54 1048.19C272.613 1048.19 267.871 1045.05 264.315 1038.77C261.351 1033.09 259.721 1027.56 259.425 1022.18C258.239 1011.11 257.202 1002.29 256.313 995.714C256.017 993.92 255.128 992.873 253.646 992.574C252.46 991.976 251.275 992.275 250.09 993.471C243.866 999.153 239.421 1003.64 236.753 1006.93C221.343 1025.17 207.858 1046.1 196.3 1069.72C195.708 1070.62 194.522 1073.01 192.744 1076.9C191.262 1080.48 189.04 1083.33 186.076 1085.42Z" fill="white"/>
<path d="M308.206 1124.89C303.168 1121.9 300.649 1116.96 300.649 1110.09L301.094 1105.6C301.686 1100.82 304.057 1095.58 308.206 1089.9C315.615 1078.84 323.469 1070.17 331.767 1063.89C335.027 1061.5 337.101 1058.81 337.99 1055.82C339.176 1052.83 339.768 1049.09 339.768 1044.6C339.472 1033.84 337.694 1020.38 334.434 1004.24C334.138 1002.44 333.693 999.302 333.1 994.817C332.508 990.332 332.211 986.445 332.211 983.156C332.211 966.112 340.065 952.058 355.772 940.995C360.217 938.303 364.811 936.958 369.553 936.958C372.22 936.958 374.146 937.107 375.332 937.406C376.813 937.705 378.443 938.752 380.221 940.546C381.111 941.443 381.555 942.34 381.555 943.237C381.555 944.134 381.259 945.031 380.666 945.928C380.073 946.825 379.332 947.423 378.443 947.722C376.665 948.32 375.332 948.47 374.442 948.171C367.626 947.872 361.551 950.414 356.216 955.796C348.807 962.972 344.658 970.597 343.769 978.67L343.325 984.501C343.325 986.594 343.621 989.435 344.214 993.023C347.77 1012.16 350.141 1028.16 351.326 1041.01C351.326 1041.31 352.067 1042.66 353.549 1045.05C356.216 1043.56 358.439 1042.21 360.217 1041.01L424.675 995.266L430.454 991.677C432.233 990.481 434.011 990.78 435.789 992.574C436.974 993.471 437.567 994.518 437.567 995.714C437.863 996.91 437.567 998.106 436.678 999.302C435.196 1001.69 432.825 1003.94 429.565 1006.03L395.336 1030.7L358.439 1057.16C353.401 1060.75 350.437 1065.53 349.548 1071.51C348.659 1081.68 345.844 1092 341.102 1102.46C337.546 1110.83 333.249 1117.11 328.21 1121.3C324.061 1125.19 319.764 1127.13 315.319 1127.13C312.948 1127.13 310.577 1126.38 308.206 1124.89ZM313.985 1113.23C315.171 1115.02 316.949 1115.02 319.32 1113.23C323.469 1109.94 327.025 1105 329.989 1098.43C332.952 1092.15 334.582 1085.42 334.878 1078.24C324.506 1085.72 317.097 1095.14 312.652 1106.5C312.059 1107.69 312.059 1108.74 312.652 1109.64C312.652 1111.13 313.096 1112.33 313.985 1113.23Z" fill="white"/>
<path d="M393.901 1203.38C390.345 1203.38 388.567 1200.99 388.567 1196.2C388.567 1189.92 389.012 1183.64 389.901 1177.36C397.013 1112.48 410.498 1049.99 430.354 989.883C433.021 981.511 437.615 969.251 444.134 953.105L449.913 937.855C451.395 934.267 453.618 929.931 456.582 924.848C457.471 923.054 458.952 922.157 461.027 922.157C464.583 922.157 465.769 924.399 464.583 928.885C464.583 929.483 464.287 930.38 463.694 931.576C443.245 981.81 426.501 1037.88 413.461 1099.77C413.165 1101.27 412.572 1104.26 411.683 1108.74C410.498 1113.23 410.053 1117.41 410.349 1121.3C412.72 1120.1 414.35 1118.46 415.239 1116.37C415.832 1114.27 416.277 1112.93 416.573 1112.33C426.056 1089.01 439.541 1062.54 457.026 1032.94C467.399 1014.7 479.253 999.302 492.589 986.744C500.295 979.567 506.37 974.634 510.815 971.943C515.557 969.251 518.965 967.607 521.04 967.009C523.707 966.112 525.93 965.663 527.708 965.663C534.228 965.663 538.673 969.7 541.044 977.773C542.229 981.062 542.822 984.8 542.822 988.986C542.822 991.976 542.674 994.668 542.378 997.06C542.081 999.153 541.785 1000.95 541.488 1002.44V1003.34C541.488 1004.83 541.933 1005.88 542.822 1006.48C543.711 1006.78 544.748 1006.63 545.934 1006.03C547.712 1005.43 550.379 1004.24 553.936 1002.44L585.053 990.332C586.239 989.734 588.017 989.136 590.388 988.538C592.166 987.94 593.648 987.641 594.833 987.641H595.278C596.76 987.641 597.945 988.239 598.834 989.435C600.02 990.332 600.76 991.378 601.057 992.574V993.471C601.057 995.864 599.871 997.508 597.5 998.405C585.35 1002.59 577.644 1005.43 574.384 1006.93C568.457 1009.32 564.012 1011.26 561.048 1012.76L547.712 1018.59C540.599 1021.88 535.561 1027.41 532.598 1035.18C525.189 1055.82 512.445 1073.46 494.367 1088.11C489.033 1092 485.032 1094.54 482.365 1095.73C480.29 1096.93 478.068 1097.53 475.697 1097.53C472.437 1097.53 469.77 1096.33 467.695 1093.94C465.62 1091.85 464.583 1088.86 464.583 1084.97C464.583 1079.59 466.213 1074.35 469.473 1069.27C474.215 1061.5 479.698 1054.77 485.921 1049.09C497.183 1038.32 508.148 1029.5 518.817 1022.63C525.337 1018.44 528.745 1012.91 529.041 1006.03C529.338 1003.64 529.782 1000.8 530.375 997.508C530.968 994.219 531.264 991.378 531.264 988.986C531.264 987.79 530.968 985.697 530.375 982.707C529.19 978.82 526.671 977.474 522.818 978.67C517.483 981.062 511.853 984.95 505.925 990.332C492.886 1001.69 480.142 1017.54 467.695 1037.88C439.244 1084.52 417.907 1134.16 403.681 1186.78C402.792 1190.07 401.607 1193.81 400.125 1198C398.643 1201.58 396.569 1203.38 393.901 1203.38ZM477.919 1082.73C479.105 1083.92 480.438 1083.92 481.92 1082.73C498.813 1070.47 509.778 1057.31 514.816 1043.26C516.298 1042.66 516.594 1041.91 515.705 1041.01C515.113 1040.42 514.52 1040.72 513.927 1041.91C504.147 1046.99 493.775 1056.41 482.809 1070.17C481.624 1071.96 480.587 1073.61 479.698 1075.1C478.808 1076.6 478.068 1077.79 477.475 1078.69C476.882 1080.78 477.03 1082.13 477.919 1082.73Z" fill="white"/>
<path d="M608.687 960.73C606.909 960.73 605.427 959.982 604.241 958.487C603.056 956.693 602.315 954.6 602.019 952.208C602.019 946.825 604.686 944.134 610.02 944.134C612.391 944.134 614.318 944.882 615.799 946.377C617.578 947.573 618.615 949.217 618.911 951.311C618.911 953.703 617.874 955.945 615.799 958.038C614.021 959.832 611.947 960.73 609.576 960.73H608.687ZM602.463 1074.65C601.278 1074.95 599.796 1075.1 598.018 1075.1C593.869 1075.1 590.164 1073.91 586.904 1071.51C583.941 1069.12 581.866 1065.98 580.681 1062.1C579.495 1059.1 578.903 1053.72 578.903 1045.95C581.866 1022.33 586.164 1003.49 591.794 989.435C594.165 984.053 596.388 980.315 598.462 978.222C600.537 976.428 602.76 976.278 605.131 977.773C606.02 978.072 606.612 978.82 606.909 980.016C607.501 980.913 607.65 981.81 607.353 982.707L604.686 989.435C600.833 997.508 597.87 1006.03 595.795 1015C594.017 1023.67 592.239 1033.99 590.461 1045.95V1049.09C590.461 1051.18 590.757 1054.02 591.35 1057.61C591.646 1059.7 592.683 1061.35 594.462 1062.54C596.24 1063.44 598.166 1063.59 600.241 1062.99C603.204 1062.69 605.871 1061.95 608.242 1060.75C610.91 1059.25 613.873 1057.16 617.133 1054.47C627.209 1046.4 638.175 1035.48 650.029 1021.73L662.032 1007.38C665.588 1002.59 668.403 999.003 670.478 996.611C671.663 995.116 673.738 993.172 676.701 990.78C678.183 989.285 679.961 989.435 682.036 991.229C683.814 992.425 684.407 994.219 683.814 996.611C683.221 998.704 682.332 1000.35 681.147 1001.54C671.367 1014.4 662.624 1025.17 654.919 1033.84C647.51 1042.51 639.36 1050.58 630.469 1058.06C625.135 1062.84 620.245 1066.58 615.799 1069.27C611.354 1071.96 606.909 1073.76 602.463 1074.65Z" fill="white"/>
<path d="M660.052 1098.87C655.607 1098.87 653.088 1096.48 652.495 1091.7C652.495 1090.5 652.495 1088.71 652.495 1086.32C652.198 1083.92 652.198 1081.83 652.495 1080.04C656.347 1052.53 662.867 1028.61 672.055 1008.27L686.28 974.634C686.872 973.737 687.317 972.84 687.613 971.943C688.206 970.746 688.947 969.55 689.836 968.354C691.318 966.859 693.096 966.411 695.171 967.009C697.838 967.906 698.875 969.401 698.282 971.494C698.282 974.484 697.541 977.773 696.06 981.361C693.689 987.342 689.836 996.312 684.502 1008.27C678.574 1022.33 673.833 1036.08 670.276 1049.54C669.091 1053.72 668.498 1056.71 668.498 1058.51C668.498 1060.3 668.943 1062.1 669.832 1063.89H669.387L669.832 1064.34L687.169 1028.9C693.689 1016.94 700.801 1007.23 708.507 999.751C712.063 996.163 715.471 993.322 718.731 991.229C720.509 990.332 722.287 989.883 724.066 989.883C727.622 989.883 730.437 991.677 732.512 995.266C733.401 996.761 734.142 998.555 734.735 1000.65C735.624 1002.44 736.513 1004.09 737.402 1005.58C740.662 1010.96 744.218 1013.65 748.071 1013.65C750.145 1013.65 752.664 1012.91 755.628 1011.41C763.926 1006.93 771.779 1001.25 779.188 994.369C780.967 992.574 782.893 991.079 784.968 989.883C785.264 989.584 785.857 989.435 786.746 989.435C787.931 989.435 789.117 989.883 790.302 990.78C792.08 992.574 792.525 994.369 791.636 996.163C790.45 998.854 789.117 1000.8 787.635 1001.99C780.226 1010.07 770.446 1017.09 758.295 1023.07C755.332 1024.57 751.923 1025.32 748.071 1025.32C740.662 1025.32 734.586 1022.03 729.845 1015.45C729.845 1015.45 727.622 1011.86 723.177 1004.68C720.509 1004.68 717.99 1006.18 715.619 1009.17C708.507 1016.35 701.839 1025.91 695.615 1037.88L687.169 1054.92C685.983 1057.91 681.686 1066.73 674.277 1081.38C671.61 1086.76 668.943 1091.4 666.276 1095.29C664.794 1097.68 662.719 1098.87 660.052 1098.87Z" fill="white"/>
<path d="M790.809 1072.41C785.178 1072.41 780.288 1071.07 776.139 1068.37C772.286 1065.38 769.619 1061.2 768.137 1055.82C766.063 1049.84 765.174 1044.75 765.47 1040.57C765.174 1035.18 766.211 1028.31 768.582 1019.93C774.213 1001.99 782.807 987.491 794.365 976.428C798.811 972.242 802.96 969.102 806.812 967.009C810.961 964.617 815.555 963.421 820.593 963.421C825.039 963.421 828.447 964.916 830.818 967.906C833.485 970.896 834.522 974.933 833.929 980.016C832.744 988.986 829.039 996.761 822.816 1003.34C815.407 1011.41 808.591 1017.84 802.367 1022.63C796.143 1027.11 789.031 1029.8 781.029 1030.7C779.251 1031 778.066 1032.34 777.473 1034.74C777.177 1035.93 777.028 1037.73 777.028 1040.12C777.028 1044.3 777.621 1047.74 778.806 1050.43C780.585 1058.81 785.623 1062.24 793.921 1060.75C799.255 1059.55 805.627 1057.16 813.036 1053.57C824.594 1047.29 835.263 1039.67 845.043 1030.7L876.605 1000.65L885.051 992.574C887.422 990.481 889.645 990.481 891.719 992.574C893.794 994.668 894.238 996.91 893.053 999.302C892.46 1000.5 891.275 1001.99 889.497 1003.79C871.715 1022.03 856.897 1036.08 845.043 1045.95C834.67 1054.62 824.149 1061.5 813.481 1066.58C804.59 1070.47 797.033 1072.41 790.809 1072.41ZM786.808 1017.24C801.922 1009.17 812.295 1000.05 817.926 989.883C820.593 985.697 821.927 982.258 821.927 979.567C821.63 976.577 820.297 975.381 817.926 975.979C815.259 976.278 812.591 977.325 809.924 979.119C798.07 986.893 789.179 998.704 783.252 1014.55C783.252 1016.05 783.548 1016.79 784.141 1016.79C785.623 1017.39 786.512 1017.54 786.808 1017.24Z" fill="white"/>
<path d="M1016.87 823.482C1018.36 824.379 1019.39 826.472 1019.99 829.762C1019.99 832.752 1018.8 836.938 1016.43 842.32C1010.8 858.168 1003.98 872.221 995.981 884.481C987.09 898.535 978.792 917.821 971.087 942.34C959.825 980.614 952.268 1012.91 948.415 1039.22C945.156 1062.24 943.526 1081.38 943.526 1096.63C943.526 1102.91 943.674 1107.69 943.97 1110.98C944.267 1122.05 945.896 1133.56 948.86 1145.52C949.453 1146.72 949.749 1147.61 949.749 1148.21L950.194 1150.9C950.194 1153.89 948.86 1155.84 946.193 1156.73C945.6 1157.03 944.859 1157.18 943.97 1157.18C941.007 1157.18 939.08 1155.09 938.191 1150.9C934.635 1136.55 932.708 1123.09 932.412 1110.54C931.227 1078.24 934.783 1042.81 943.081 1004.24C944.266 998.256 947.23 986.295 951.972 968.354C953.157 964.168 953.454 960.879 952.861 958.487V958.935C950.194 960.131 947.971 962.075 946.193 964.766C944.711 967.457 943.526 969.401 942.637 970.597C926.929 993.621 912.704 1012.16 899.961 1026.21C898.479 1028.01 893.737 1032.94 885.735 1041.01C882.179 1044 879.216 1045.8 876.845 1046.4H875.067C872.992 1046.4 871.214 1045.8 869.732 1044.6C867.954 1043.11 866.917 1041.16 866.62 1038.77C866.62 1035.78 867.065 1032.94 867.954 1030.25C874.474 1009.02 883.216 990.481 894.182 974.634C898.627 968.653 903.369 963.869 908.407 960.281C912.556 957.59 915.964 956.244 918.631 956.244C922.78 956.244 926.485 959.683 929.745 966.56C931.523 965.962 932.857 964.916 933.746 963.421C934.635 961.627 935.228 960.58 935.524 960.281L952.861 934.715C965.604 915.578 974.495 898.236 979.533 882.687C984.571 866.54 991.239 851.44 999.538 837.386C1002.5 831.107 1005.61 826.771 1008.87 824.379C1010.06 823.183 1011.54 822.585 1013.32 822.585C1014.8 822.585 1015.99 822.884 1016.87 823.482ZM884.402 1027.11C903.369 1004.39 916.112 988.388 922.632 979.119C923.225 977.923 924.41 976.129 926.189 973.737C928.263 971.344 929.448 969.102 929.745 967.009C928.559 966.71 926.781 966.56 924.41 966.56C920.261 966.56 916.557 967.756 913.297 970.148C910.037 972.541 906.777 975.83 903.517 980.016C902.924 980.315 902.332 981.062 901.739 982.258C895.812 991.528 889.885 1003.64 883.957 1018.59L883.068 1022.18C883.068 1023.97 883.513 1025.62 884.402 1027.11Z" fill="white"/>
</svg>
