<svg width="1048" height="1204" viewBox="0 0 1048 1204" fill="none" xmlns="http://www.w3.org/2000/svg">
<path fill-rule="evenodd" clip-rule="evenodd" d="M68.1738 622.097L280.034 870.675L484.017 595.789L277.939 357.239L68.1738 622.097ZM50.7513 622.462L280.527 892.06L501.48 595.589L277.384 335.604L50.7513 622.462Z" fill="#DDDEE2"/>
<path fill-rule="evenodd" clip-rule="evenodd" d="M314.809 292.055L523.013 536.462L732.085 270.732L522.552 21.3332L314.809 292.055ZM297.656 292.44L523.466 557.515L749.277 270.509L522.038 0.0346804L297.656 292.44Z" fill="#DDDEE2"/>
<path fill-rule="evenodd" clip-rule="evenodd" d="M558.901 593.231L770.76 841.809L974.744 566.923L768.665 328.373L558.901 593.231ZM541.478 593.596L771.253 863.194L992.207 566.723L768.111 306.738L541.478 593.596Z" fill="#DDDEE2"/>
<path d="M370.008 613.418L306.212 774.181L242.417 612.751C239.759 606.748 233.778 602.745 227.797 602.745C221.152 602.745 217.829 606.748 220.487 612.751L296.244 804.199V933.609C296.244 940.28 300.232 944.282 306.877 944.282C312.858 944.282 316.845 940.28 316.845 933.609V804.199L392.602 613.418C395.26 606.748 391.937 602.745 385.292 602.745C378.647 602.745 372.666 606.748 370.008 613.418Z" fill="#A0522D"/>
<path d="M575.609 613.418C575.609 606.748 571.622 602.745 564.976 602.745H498.523C488.555 602.745 481.909 609.416 481.909 619.422V927.605C481.909 937.611 488.555 944.282 498.523 944.282H564.976C571.622 944.282 575.609 940.28 575.609 933.609C575.609 926.938 571.622 922.936 564.976 922.936H501.845V777.516H540.388C546.369 777.516 550.356 773.514 550.356 766.843C550.356 760.84 546.369 756.837 540.388 756.837H501.845V624.091H564.976C571.622 624.091 575.609 620.089 575.609 613.418Z" fill="#A0522D"/>
<path d="M744.089 772.847L738.108 766.843C690.262 718.814 680.958 697.468 680.958 674.121C680.958 646.772 702.888 624.758 730.134 624.758C753.393 624.758 773.329 641.435 777.98 662.781C779.31 668.785 783.297 672.787 789.942 672.787C795.923 672.787 799.91 668.785 799.246 662.781C793.929 629.428 763.361 604.747 730.134 604.747C691.591 604.747 660.358 636.099 660.358 674.788C660.358 719.482 688.933 748.165 716.843 775.515L722.824 781.518C770.671 829.547 779.974 850.893 779.974 874.24C779.974 901.59 758.044 923.603 730.798 923.603C707.54 923.603 687.604 906.926 682.952 885.58C681.623 879.577 677.636 875.574 671.655 875.574C665.009 875.574 661.022 879.577 661.687 885.58C667.003 918.934 697.572 943.615 730.798 943.615C769.341 943.615 800.575 912.263 800.575 873.573C800.575 828.88 772 800.196 744.089 772.847Z" fill="#A0522D"/>
<path d="M131.583 960.73C129.804 960.73 128.323 959.982 127.137 958.487C125.952 956.693 125.211 954.6 124.915 952.208C124.915 946.825 127.582 944.134 132.916 944.134C135.287 944.134 137.213 944.882 138.695 946.377C140.473 947.573 141.511 949.217 141.807 951.311C141.807 953.703 140.77 955.945 138.695 958.038C136.917 959.832 134.843 960.73 132.472 960.73H131.583ZM125.359 1074.65C124.174 1074.95 122.692 1075.1 120.914 1075.1C116.765 1075.1 113.06 1073.91 109.8 1071.51C106.837 1069.12 104.762 1065.98 103.577 1062.1C102.391 1059.1 101.798 1053.72 101.798 1045.95C104.762 1022.33 109.059 1003.49 114.69 989.435C117.061 984.053 119.284 980.315 121.358 978.222C123.433 976.428 125.655 976.278 128.026 977.773C128.915 978.072 129.508 978.82 129.804 980.016C130.397 980.913 130.545 981.81 130.249 982.707L127.582 989.435C123.729 997.508 120.765 1006.03 118.691 1015C116.913 1023.67 115.135 1033.99 113.356 1045.95V1049.09C113.356 1051.18 113.653 1054.02 114.246 1057.61C114.542 1059.7 115.579 1061.35 117.357 1062.54C119.135 1063.44 121.062 1063.59 123.136 1062.99C126.1 1062.69 128.767 1061.95 131.138 1060.75C133.805 1059.25 136.769 1057.16 140.029 1054.47C150.105 1046.4 161.07 1035.48 172.925 1021.73L184.927 1007.38C188.484 1002.59 191.299 999.003 193.374 996.611C194.559 995.116 196.633 993.172 199.597 990.78C201.079 989.285 202.857 989.435 204.932 991.229C206.71 992.425 207.302 994.219 206.71 996.611C206.117 998.704 205.228 1000.35 204.042 1001.54C194.263 1014.4 185.52 1025.17 177.815 1033.84C170.406 1042.51 162.256 1050.58 153.365 1058.06C148.031 1062.84 143.141 1066.58 138.695 1069.27C134.25 1071.96 129.804 1073.76 125.359 1074.65Z" fill="#7D98A8"/>
<path d="M186.504 1085.42C185.319 1086.32 183.837 1086.76 182.059 1086.76C180.577 1086.76 179.243 1086.32 178.058 1085.42C176.872 1084.22 176.131 1082.58 175.835 1080.48C175.539 1079.29 175.391 1077.34 175.391 1074.65C175.983 1069.27 176.576 1065.53 177.169 1063.44L179.836 1054.02C181.91 1045.05 184.133 1036.83 186.504 1029.35C191.838 1014.4 200.137 991.976 211.398 962.075C212.287 959.982 214.51 955.646 218.066 949.068C218.955 947.573 220.141 946.676 221.623 946.377C223.104 945.779 224.438 945.928 225.623 946.825C228.291 948.32 229.032 950.862 227.846 954.45L225.179 959.832L198.951 1028.46C198.655 1029.35 198.062 1031 197.173 1033.39C196.284 1035.78 195.839 1038.02 195.839 1040.12C195.839 1042.21 196.136 1043.86 196.728 1045.05C205.916 1028.31 217.474 1011.71 231.402 995.266C237.922 988.089 243.85 983.006 249.184 980.016C251.259 978.82 253.481 978.222 255.852 978.222C260.001 978.222 263.409 980.614 266.077 985.398C267.262 987.79 268.151 991.528 268.744 996.611L270.966 1018.59C271.559 1023.97 272.893 1028.61 274.967 1032.49C276.449 1035.78 278.968 1036.83 282.525 1035.63C286.97 1034.14 291.86 1031 297.194 1026.21L304.751 1019.04L320.31 1004.24C324.459 1000.65 327.423 997.957 329.201 996.163C330.979 994.369 332.165 993.172 332.757 992.574C334.832 990.481 336.906 990.481 338.981 992.574C341.055 994.369 341.648 996.462 340.759 998.854C339.87 1001.25 338.536 1003.34 336.758 1005.13C334.091 1007.82 324.904 1016.35 309.197 1030.7L300.751 1038.32C295.416 1043.41 289.489 1046.55 282.969 1047.74L278.968 1048.19C273.041 1048.19 268.299 1045.05 264.743 1038.77C261.779 1033.09 260.149 1027.56 259.853 1022.18C258.668 1011.11 257.63 1002.29 256.741 995.714C256.445 993.92 255.556 992.873 254.074 992.574C252.889 991.976 251.703 992.275 250.518 993.471C244.294 999.153 239.849 1003.64 237.181 1006.93C221.771 1025.17 208.286 1046.1 196.728 1069.72C196.136 1070.62 194.95 1073.01 193.172 1076.9C191.69 1080.48 189.468 1083.33 186.504 1085.42Z" fill="#7D98A8"/>
<path d="M308.634 1124.89C303.596 1121.9 301.077 1116.96 301.077 1110.09L301.522 1105.6C302.114 1100.82 304.485 1095.58 308.634 1089.9C316.043 1078.84 323.897 1070.17 332.195 1063.89C335.455 1061.5 337.529 1058.81 338.418 1055.82C339.604 1052.83 340.197 1049.09 340.197 1044.6C339.9 1033.84 338.122 1020.38 334.862 1004.24C334.566 1002.44 334.121 999.302 333.528 994.817C332.936 990.332 332.639 986.445 332.639 983.156C332.639 966.112 340.493 952.058 356.2 940.995C360.645 938.303 365.239 936.958 369.981 936.958C372.648 936.958 374.574 937.107 375.76 937.406C377.241 937.705 378.871 938.752 380.65 940.546C381.539 941.443 381.983 942.34 381.983 943.237C381.983 944.134 381.687 945.031 381.094 945.928C380.501 946.825 379.76 947.423 378.871 947.722C377.093 948.32 375.76 948.47 374.871 948.171C368.054 947.872 361.979 950.414 356.644 955.796C349.235 962.972 345.086 970.597 344.197 978.67L343.753 984.501C343.753 986.594 344.049 989.435 344.642 993.023C348.198 1012.16 350.569 1028.16 351.755 1041.01C351.755 1041.31 352.495 1042.66 353.977 1045.05C356.644 1043.56 358.867 1042.21 360.645 1041.01L425.103 995.266L430.883 991.677C432.661 990.481 434.439 990.78 436.217 992.574C437.402 993.471 437.995 994.518 437.995 995.714C438.292 996.91 437.995 998.106 437.106 999.302C435.624 1001.69 433.253 1003.94 429.993 1006.03L395.764 1030.7L358.867 1057.16C353.829 1060.75 350.865 1065.53 349.976 1071.51C349.087 1081.68 346.272 1092 341.53 1102.46C337.974 1110.83 333.677 1117.11 328.638 1121.3C324.489 1125.19 320.192 1127.13 315.747 1127.13C313.376 1127.13 311.005 1126.38 308.634 1124.89ZM314.413 1113.23C315.599 1115.02 317.377 1115.02 319.748 1113.23C323.897 1109.94 327.453 1105 330.417 1098.43C333.38 1092.15 335.01 1085.42 335.307 1078.24C324.934 1085.72 317.525 1095.14 313.08 1106.5C312.487 1107.69 312.487 1108.74 313.08 1109.64C313.08 1111.13 313.524 1112.33 314.413 1113.23Z" fill="#7D98A8"/>
<path d="M394.33 1203.38C390.773 1203.38 388.995 1200.99 388.995 1196.2C388.995 1189.92 389.44 1183.64 390.329 1177.36C397.441 1112.48 410.926 1049.99 430.782 989.883C433.449 981.511 438.043 969.251 444.562 953.105L450.342 937.855C451.823 934.267 454.046 929.931 457.01 924.848C457.899 923.054 459.38 922.157 461.455 922.157C465.011 922.157 466.197 924.399 465.011 928.885C465.011 929.483 464.715 930.38 464.122 931.576C443.673 981.81 426.929 1037.88 413.889 1099.77C413.593 1101.27 413 1104.26 412.111 1108.74C410.926 1113.23 410.481 1117.41 410.778 1121.3C413.148 1120.1 414.778 1118.46 415.667 1116.37C416.26 1114.27 416.705 1112.93 417.001 1112.33C426.485 1089.01 439.969 1062.54 457.454 1032.94C467.827 1014.7 479.681 999.302 493.017 986.744C500.723 979.567 506.798 974.634 511.243 971.943C515.985 969.251 519.393 967.607 521.468 967.009C524.135 966.112 526.358 965.663 528.136 965.663C534.656 965.663 539.101 969.7 541.472 977.773C542.657 981.062 543.25 984.8 543.25 988.986C543.25 991.976 543.102 994.668 542.806 997.06C542.509 999.153 542.213 1000.95 541.917 1002.44V1003.34C541.917 1004.83 542.361 1005.88 543.25 1006.48C544.139 1006.78 545.177 1006.63 546.362 1006.03C548.14 1005.43 550.807 1004.24 554.364 1002.44L585.481 990.332C586.667 989.734 588.445 989.136 590.816 988.538C592.594 987.94 594.076 987.641 595.261 987.641H595.706C597.188 987.641 598.373 988.239 599.262 989.435C600.448 990.332 601.189 991.378 601.485 992.574V993.471C601.485 995.864 600.299 997.508 597.929 998.405C585.778 1002.59 578.072 1005.43 574.813 1006.93C568.885 1009.32 564.44 1011.26 561.476 1012.76L548.14 1018.59C541.028 1021.88 535.989 1027.41 533.026 1035.18C525.617 1055.82 512.873 1073.46 494.795 1088.11C489.461 1092 485.46 1094.54 482.793 1095.73C480.718 1096.93 478.496 1097.53 476.125 1097.53C472.865 1097.53 470.198 1096.33 468.123 1093.94C466.049 1091.85 465.011 1088.86 465.011 1084.97C465.011 1079.59 466.641 1074.35 469.901 1069.27C474.643 1061.5 480.126 1054.77 486.349 1049.09C497.611 1038.32 508.576 1029.5 519.245 1022.63C525.765 1018.44 529.173 1012.91 529.47 1006.03C529.766 1003.64 530.21 1000.8 530.803 997.508C531.396 994.219 531.692 991.378 531.692 988.986C531.692 987.79 531.396 985.697 530.803 982.707C529.618 978.82 527.099 977.474 523.246 978.67C517.911 981.062 512.281 984.95 506.353 990.332C493.314 1001.69 480.57 1017.54 468.123 1037.88C439.673 1084.52 418.335 1134.16 404.109 1186.78C403.22 1190.07 402.035 1193.81 400.553 1198C399.071 1201.58 396.997 1203.38 394.33 1203.38ZM478.348 1082.73C479.533 1083.92 480.867 1083.92 482.348 1082.73C499.241 1070.47 510.206 1057.31 515.244 1043.26C516.726 1042.66 517.022 1041.91 516.133 1041.01C515.541 1040.42 514.948 1040.72 514.355 1041.91C504.575 1046.99 494.203 1056.41 483.237 1070.17C482.052 1071.96 481.015 1073.61 480.126 1075.1C479.237 1076.6 478.496 1077.79 477.903 1078.69C477.31 1080.78 477.458 1082.13 478.348 1082.73Z" fill="#7D98A8"/>
<path d="M609.115 960.73C607.337 960.73 605.855 959.982 604.67 958.487C603.484 956.693 602.743 954.6 602.447 952.208C602.447 946.825 605.114 944.134 610.449 944.134C612.819 944.134 614.746 944.882 616.228 946.377C618.006 947.573 619.043 949.217 619.339 951.311C619.339 953.703 618.302 955.945 616.228 958.038C614.449 959.832 612.375 960.73 610.004 960.73H609.115ZM602.891 1074.65C601.706 1074.95 600.224 1075.1 598.446 1075.1C594.297 1075.1 590.592 1073.91 587.333 1071.51C584.369 1069.12 582.294 1065.98 581.109 1062.1C579.924 1059.1 579.331 1053.72 579.331 1045.95C582.294 1022.33 586.592 1003.49 592.222 989.435C594.593 984.053 596.816 980.315 598.891 978.222C600.965 976.428 603.188 976.278 605.559 977.773C606.448 978.072 607.04 978.82 607.337 980.016C607.929 980.913 608.078 981.81 607.781 982.707L605.114 989.435C601.261 997.508 598.298 1006.03 596.223 1015C594.445 1023.67 592.667 1033.99 590.889 1045.95V1049.09C590.889 1051.18 591.185 1054.02 591.778 1057.61C592.074 1059.7 593.112 1061.35 594.89 1062.54C596.668 1063.44 598.594 1063.59 600.669 1062.99C603.632 1062.69 606.3 1061.95 608.67 1060.75C611.338 1059.25 614.301 1057.16 617.561 1054.47C627.637 1046.4 638.603 1035.48 650.457 1021.73L662.46 1007.38C666.016 1002.59 668.831 999.003 670.906 996.611C672.091 995.116 674.166 993.172 677.129 990.78C678.611 989.285 680.389 989.435 682.464 991.229C684.242 992.425 684.835 994.219 684.242 996.611C683.649 998.704 682.76 1000.35 681.575 1001.54C671.795 1014.4 663.052 1025.17 655.347 1033.84C647.938 1042.51 639.788 1050.58 630.897 1058.06C625.563 1062.84 620.673 1066.58 616.228 1069.27C611.782 1071.96 607.337 1073.76 602.891 1074.65Z" fill="#7D98A8"/>
<path d="M660.48 1098.87C656.035 1098.87 653.516 1096.48 652.923 1091.7C652.923 1090.5 652.923 1088.71 652.923 1086.32C652.627 1083.92 652.627 1081.83 652.923 1080.04C656.776 1052.53 663.296 1028.61 672.483 1008.27L686.708 974.634C687.301 973.737 687.745 972.84 688.042 971.943C688.634 970.746 689.375 969.55 690.264 968.354C691.746 966.859 693.524 966.411 695.599 967.009C698.266 967.906 699.303 969.401 698.71 971.494C698.71 974.484 697.97 977.773 696.488 981.361C694.117 987.342 690.264 996.312 684.93 1008.27C679.003 1022.33 674.261 1036.08 670.704 1049.54C669.519 1053.72 668.926 1056.71 668.926 1058.51C668.926 1060.3 669.371 1062.1 670.26 1063.89H669.815L670.26 1064.34L687.597 1028.9C694.117 1016.94 701.229 1007.23 708.935 999.751C712.491 996.163 715.899 993.322 719.159 991.229C720.937 990.332 722.716 989.883 724.494 989.883C728.05 989.883 730.865 991.677 732.94 995.266C733.829 996.761 734.57 998.555 735.163 1000.65C736.052 1002.44 736.941 1004.09 737.83 1005.58C741.09 1010.96 744.646 1013.65 748.499 1013.65C750.573 1013.65 753.092 1012.91 756.056 1011.41C764.354 1006.93 772.208 1001.25 779.617 994.369C781.395 992.574 783.321 991.079 785.396 989.883C785.692 989.584 786.285 989.435 787.174 989.435C788.359 989.435 789.545 989.883 790.73 990.78C792.508 992.574 792.953 994.369 792.064 996.163C790.878 998.854 789.545 1000.8 788.063 1001.99C780.654 1010.07 770.874 1017.09 758.723 1023.07C755.76 1024.57 752.352 1025.32 748.499 1025.32C741.09 1025.32 735.014 1022.03 730.273 1015.45C730.273 1015.45 728.05 1011.86 723.605 1004.68C720.937 1004.68 718.418 1006.18 716.048 1009.17C708.935 1016.35 702.267 1025.91 696.043 1037.88L687.597 1054.92C686.412 1057.91 682.114 1066.73 674.705 1081.38C672.038 1086.76 669.371 1091.4 666.704 1095.29C665.222 1097.68 663.147 1098.87 660.48 1098.87Z" fill="#7D98A8"/>
<path d="M791.237 1072.41C785.606 1072.41 780.716 1071.07 776.567 1068.37C772.715 1065.38 770.047 1061.2 768.566 1055.82C766.491 1049.84 765.602 1044.75 765.898 1040.57C765.602 1035.18 766.639 1028.31 769.01 1019.93C774.641 1001.99 783.235 987.491 794.793 976.428C799.239 972.242 803.388 969.102 807.241 967.009C811.39 964.617 815.983 963.421 821.021 963.421C825.467 963.421 828.875 964.916 831.246 967.906C833.913 970.896 834.95 974.933 834.357 980.016C833.172 988.986 829.467 996.761 823.244 1003.34C815.835 1011.41 809.019 1017.84 802.795 1022.63C796.572 1027.11 789.459 1029.8 781.457 1030.7C779.679 1031 778.494 1032.34 777.901 1034.74C777.605 1035.93 777.456 1037.73 777.456 1040.12C777.456 1044.3 778.049 1047.74 779.235 1050.43C781.013 1058.81 786.051 1062.24 794.349 1060.75C799.683 1059.55 806.055 1057.16 813.464 1053.57C825.022 1047.29 835.691 1039.67 845.471 1030.7L877.033 1000.65L885.479 992.574C887.85 990.481 890.073 990.481 892.148 992.574C894.222 994.668 894.667 996.91 893.481 999.302C892.888 1000.5 891.703 1001.99 889.925 1003.79C872.143 1022.03 857.325 1036.08 845.471 1045.95C835.098 1054.62 824.578 1061.5 813.909 1066.58C805.018 1070.47 797.461 1072.41 791.237 1072.41ZM787.236 1017.24C802.351 1009.17 812.723 1000.05 818.354 989.883C821.021 985.697 822.355 982.258 822.355 979.567C822.058 976.577 820.725 975.381 818.354 975.979C815.687 976.278 813.02 977.325 810.352 979.119C798.498 986.893 789.607 998.704 783.68 1014.55C783.68 1016.05 783.976 1016.79 784.569 1016.79C786.051 1017.39 786.94 1017.54 787.236 1017.24Z" fill="#7D98A8"/>
<path d="M1017.3 823.482C1018.78 824.379 1019.82 826.472 1020.41 829.762C1020.41 832.752 1019.23 836.938 1016.86 842.32C1011.23 858.168 1004.41 872.221 996.409 884.481C987.519 898.535 979.221 917.821 971.515 942.34C960.254 980.614 952.696 1012.91 948.844 1039.22C945.584 1062.24 943.954 1081.38 943.954 1096.63C943.954 1102.91 944.102 1107.69 944.398 1110.98C944.695 1122.05 946.325 1133.56 949.288 1145.52C949.881 1146.72 950.177 1147.61 950.177 1148.21L950.622 1150.9C950.622 1153.89 949.288 1155.84 946.621 1156.73C946.028 1157.03 945.287 1157.18 944.398 1157.18C941.435 1157.18 939.508 1155.09 938.619 1150.9C935.063 1136.55 933.137 1123.09 932.84 1110.54C931.655 1078.24 935.211 1042.81 943.509 1004.24C944.695 998.256 947.658 986.295 952.4 968.354C953.585 964.168 953.882 960.879 953.289 958.487V958.935C950.622 960.131 948.399 962.075 946.621 964.766C945.139 967.457 943.954 969.401 943.065 970.597C927.358 993.621 913.132 1012.16 900.389 1026.21C898.907 1028.01 894.165 1032.94 886.164 1041.01C882.607 1044 879.644 1045.8 877.273 1046.4H875.495C873.42 1046.4 871.642 1045.8 870.16 1044.6C868.382 1043.11 867.345 1041.16 867.048 1038.77C867.048 1035.78 867.493 1032.94 868.382 1030.25C874.902 1009.02 883.645 990.481 894.61 974.634C899.055 968.653 903.797 963.869 908.835 960.281C912.984 957.59 916.392 956.244 919.06 956.244C923.209 956.244 926.913 959.683 930.173 966.56C931.951 965.962 933.285 964.916 934.174 963.421C935.063 961.627 935.656 960.58 935.952 960.281L953.289 934.715C966.033 915.578 974.923 898.236 979.961 882.687C985 866.54 991.668 851.44 999.966 837.386C1002.93 831.107 1006.04 826.771 1009.3 824.379C1010.49 823.183 1011.97 822.585 1013.75 822.585C1015.23 822.585 1016.41 822.884 1017.3 823.482ZM884.83 1027.11C903.797 1004.39 916.54 988.388 923.06 979.119C923.653 977.923 924.839 976.129 926.617 973.737C928.691 971.344 929.877 969.102 930.173 967.009C928.988 966.71 927.209 966.56 924.839 966.56C920.69 966.56 916.985 967.756 913.725 970.148C910.465 972.541 907.205 975.83 903.945 980.016C903.352 980.315 902.76 981.062 902.167 982.258C896.24 991.528 890.313 1003.64 884.385 1018.59L883.496 1022.18C883.496 1023.97 883.941 1025.62 884.83 1027.11Z" fill="#7D98A8"/>
</svg>
