<svg width="2106" height="610" viewBox="0 0 2106 610" fill="none" xmlns="http://www.w3.org/2000/svg">
<path d="M151.498 87.6242L87.4355 248.817L23.3734 86.9553C20.7042 80.9357 14.6984 76.9226 8.69256 76.9226C2.01944 76.9226 -1.31713 80.9357 1.35212 86.9553L77.4258 278.915V408.671C77.4258 415.36 81.4297 419.373 88.1028 419.373C94.1086 419.373 98.1125 415.36 98.1125 408.671V278.915L174.186 87.6242C176.855 80.9357 173.519 76.9226 166.846 76.9226C160.173 76.9226 154.167 80.9357 151.498 87.6242Z" fill="white"/>
<path d="M357.958 87.6242C357.958 80.9357 353.954 76.9226 347.281 76.9226H280.55C270.54 76.9226 263.867 83.6111 263.867 93.6438V402.652C263.867 412.684 270.54 419.373 280.55 419.373H347.281C353.954 419.373 357.958 415.36 357.958 408.671C357.958 401.983 353.954 397.97 347.281 397.97H283.886V252.161H322.59C328.596 252.161 332.6 248.148 332.6 241.459C332.6 235.44 328.596 231.426 322.59 231.426H283.886V98.3257H347.281C353.954 98.3257 357.958 94.3127 357.958 87.6242Z" fill="white"/>
<path d="M527.143 247.479L521.137 241.459C473.09 193.302 463.748 171.899 463.748 148.489C463.748 121.067 485.769 98.9946 513.129 98.9946C536.485 98.9946 556.504 115.716 561.176 137.119C562.51 143.139 566.514 147.152 573.187 147.152C579.193 147.152 583.197 143.139 582.53 137.119C577.191 103.677 546.495 78.9292 513.129 78.9292C474.425 78.9292 443.061 110.365 443.061 149.158C443.061 193.971 471.756 222.731 499.783 250.154L505.789 256.174C553.835 304.331 563.178 325.734 563.178 349.144C563.178 376.566 541.156 398.638 513.796 398.638C490.44 398.638 470.421 381.917 465.75 360.514C464.415 354.495 460.411 350.481 454.406 350.481C447.732 350.481 443.728 354.495 444.396 360.514C449.734 393.957 480.431 418.704 513.796 418.704C552.5 418.704 583.864 387.268 583.864 348.475C583.864 303.662 555.17 274.902 527.143 247.479Z" fill="white"/>
<path d="M694.572 221.683C691.749 221.683 689.396 220.488 687.514 218.098C685.632 215.229 684.455 211.883 683.985 208.059C683.985 199.454 688.22 195.151 696.69 195.151C700.454 195.151 703.513 196.346 705.866 198.737C708.689 200.649 710.336 203.278 710.807 206.625C710.807 210.449 709.16 214.034 705.866 217.381C703.042 220.249 699.748 221.683 695.984 221.683H694.572ZM684.69 403.821C682.808 404.299 680.455 404.538 677.632 404.538C671.044 404.538 665.162 402.626 659.986 398.802C655.28 394.977 651.986 389.958 650.104 383.743C648.222 378.963 647.281 370.358 647.281 357.928C651.986 320.162 658.81 290.045 667.75 267.576C671.515 258.971 675.044 252.996 678.338 249.649C681.632 246.781 685.161 246.542 688.925 248.932C690.337 249.41 691.278 250.605 691.749 252.518C692.69 253.952 692.925 255.386 692.455 256.82L688.22 267.576C682.102 280.484 677.397 294.108 674.103 308.45C671.279 322.313 668.456 338.806 665.633 357.928V362.948C665.633 366.294 666.103 370.836 667.044 376.572C667.515 379.919 669.162 382.548 671.985 384.46C674.809 385.894 677.867 386.133 681.161 385.177C685.867 384.699 690.102 383.504 693.866 381.592C698.101 379.202 702.807 375.855 707.983 371.553C723.982 358.645 741.393 341.196 760.215 319.206L779.273 296.259C784.92 288.611 789.39 282.874 792.684 279.049C794.566 276.659 797.86 273.552 802.566 269.727C804.919 267.337 807.742 267.576 811.036 270.445C813.86 272.357 814.801 275.225 813.86 279.049C812.918 282.396 811.507 285.025 809.624 286.937C794.096 307.494 780.214 324.704 767.98 338.567C756.216 352.431 743.275 365.338 729.158 377.289C720.688 384.938 712.924 390.914 705.866 395.216C698.807 399.519 691.749 402.387 684.69 403.821Z" fill="white"/>
<path d="M781.777 421.031C779.895 422.465 777.542 423.182 774.718 423.182C772.366 423.182 770.248 422.465 768.366 421.031C766.484 419.119 765.307 416.49 764.837 413.143C764.366 411.231 764.131 408.124 764.131 403.821C765.072 395.216 766.013 389.241 766.954 385.894L771.189 370.836C774.483 356.494 778.012 343.348 781.777 331.396C790.247 307.494 803.423 271.64 821.304 223.834C822.716 220.488 826.245 213.556 831.892 203.039C833.303 200.649 835.186 199.215 837.538 198.737C839.891 197.781 842.009 198.02 843.891 199.454C848.126 201.844 849.302 205.907 847.42 211.644L843.185 220.249L801.54 329.962C801.07 331.396 800.129 334.026 798.717 337.85C797.305 341.674 796.599 345.26 796.599 348.606C796.599 351.953 797.07 354.582 798.011 356.494C812.599 329.723 830.95 303.191 853.067 276.898C863.419 265.425 872.83 257.298 881.301 252.518C884.594 250.605 888.124 249.649 891.888 249.649C898.476 249.649 903.887 253.474 908.123 261.122C910.005 264.947 911.416 270.923 912.358 279.049L915.887 314.186C916.828 322.791 918.945 330.201 922.239 336.416C924.592 341.674 928.592 343.348 934.239 341.435C941.297 339.045 949.061 334.026 957.531 326.377L969.531 314.903L994.235 291.24C1000.82 285.503 1005.53 281.201 1008.35 278.332C1011.18 275.464 1013.06 273.552 1014 272.596C1017.29 269.249 1020.59 269.249 1023.88 272.596C1027.17 275.464 1028.12 278.81 1026.7 282.635C1025.29 286.459 1023.17 289.806 1020.35 292.674C1016.12 296.977 1001.53 310.601 976.589 333.548L963.178 345.738C954.708 353.865 945.297 358.884 934.945 360.797L928.592 361.514C919.181 361.514 911.652 356.494 906.005 346.455C901.299 337.372 898.711 328.528 898.241 319.923C896.358 302.235 894.712 288.132 893.3 277.615C892.829 274.747 891.418 273.074 889.065 272.596C887.183 271.64 885.3 272.118 883.418 274.03C873.536 283.113 866.478 290.284 862.243 295.542C837.774 324.704 816.363 358.167 798.011 395.933C797.07 397.368 795.188 401.192 792.364 407.407C790.012 413.143 786.482 417.685 781.777 421.031Z" fill="white"/>
<path d="M975.696 484.134C967.696 479.354 963.697 471.466 963.697 460.471L964.402 453.3C965.344 445.651 969.108 437.285 975.696 428.202C987.46 410.514 999.93 396.65 1013.11 386.611C1018.28 382.787 1021.58 378.484 1022.99 373.704C1024.87 368.923 1025.81 362.948 1025.81 355.777C1025.34 338.567 1022.52 317.055 1017.34 291.24C1016.87 288.372 1016.16 283.352 1015.22 276.181C1014.28 269.01 1013.81 262.796 1013.81 257.537C1013.81 230.288 1026.28 207.82 1051.22 190.132C1058.28 185.829 1065.57 183.678 1073.1 183.678C1077.34 183.678 1080.4 183.917 1082.28 184.395C1084.63 184.873 1087.22 186.546 1090.04 189.415C1091.45 190.849 1092.16 192.283 1092.16 193.717C1092.16 195.151 1091.69 196.585 1090.75 198.02C1089.81 199.454 1088.63 200.41 1087.22 200.888C1084.4 201.844 1082.28 202.083 1080.87 201.605C1070.04 201.127 1060.4 205.19 1051.93 213.795C1040.16 225.269 1033.57 237.459 1032.16 250.366L1031.46 259.688C1031.46 263.035 1031.93 267.576 1032.87 273.313C1038.52 303.908 1042.28 329.484 1044.16 350.04C1044.16 350.518 1045.34 352.67 1047.69 356.494C1051.93 354.104 1055.46 351.953 1058.28 350.04L1160.63 276.898L1169.8 271.162C1172.63 269.249 1175.45 269.727 1178.27 272.596C1180.15 274.03 1181.1 275.703 1181.1 277.615C1181.57 279.528 1181.1 281.44 1179.68 283.352C1177.33 287.176 1173.57 290.762 1168.39 294.108L1114.04 333.548L1055.46 375.855C1047.46 381.592 1042.75 389.241 1041.34 398.802C1039.93 415.056 1035.46 431.548 1027.93 448.28C1022.28 461.666 1015.46 471.705 1007.46 478.398C1000.87 484.612 994.048 487.72 986.989 487.72C983.225 487.72 979.46 486.524 975.696 484.134ZM984.872 465.49C986.754 468.358 989.577 468.358 993.342 465.49C999.93 460.232 1005.58 452.344 1010.28 441.827C1014.99 431.787 1017.58 421.031 1018.05 409.558C1001.58 421.509 989.813 436.568 982.754 454.734C981.813 456.646 981.813 458.319 982.754 459.753C982.754 462.144 983.46 464.056 984.872 465.49Z" fill="white"/>
<path d="M1111.76 609.623C1106.12 609.623 1103.29 605.799 1103.29 598.15C1103.29 588.111 1104 578.072 1105.41 568.032C1116.7 464.295 1138.11 364.382 1169.64 268.293C1173.88 254.908 1181.17 235.308 1191.52 209.493L1200.7 185.112C1203.05 179.376 1206.58 172.444 1211.29 164.317C1212.7 161.449 1215.05 160.014 1218.35 160.014C1223.99 160.014 1225.87 163.6 1223.99 170.771C1223.99 171.727 1223.52 173.161 1222.58 175.073C1190.11 255.386 1163.53 345.021 1142.82 443.978C1142.35 446.368 1141.41 451.149 1140 458.319C1138.11 465.49 1137.41 472.183 1137.88 478.398C1141.64 476.485 1144.23 473.856 1145.64 470.51C1146.59 467.163 1147.29 465.012 1147.76 464.056C1162.82 426.768 1184.23 384.46 1211.99 337.133C1228.46 307.972 1247.29 283.352 1268.46 263.274C1280.7 251.8 1290.34 243.913 1297.4 239.61C1304.93 235.308 1310.34 232.678 1313.63 231.722C1317.87 230.288 1321.4 229.571 1324.22 229.571C1334.57 229.571 1341.63 236.025 1345.4 248.932C1347.28 254.191 1348.22 260.166 1348.22 266.859C1348.22 271.64 1347.99 275.942 1347.51 279.767C1347.04 283.113 1346.57 285.981 1346.1 288.372V289.806C1346.1 292.196 1346.81 293.869 1348.22 294.825C1349.63 295.303 1351.28 295.064 1353.16 294.108C1355.98 293.152 1360.22 291.24 1365.87 288.372L1415.28 269.01C1417.16 268.054 1419.98 267.098 1423.75 266.142C1426.57 265.186 1428.92 264.708 1430.8 264.708H1431.51C1433.86 264.708 1435.74 265.664 1437.16 267.576C1439.04 269.01 1440.22 270.684 1440.69 272.596V274.03C1440.69 277.854 1438.8 280.484 1435.04 281.918C1415.75 288.611 1403.51 293.152 1398.34 295.542C1388.92 299.367 1381.87 302.474 1377.16 304.864L1355.98 314.186C1344.69 319.445 1336.69 328.289 1331.99 340.718C1320.22 373.704 1299.99 401.909 1271.28 425.334C1262.81 431.548 1256.46 435.612 1252.23 437.524C1248.93 439.436 1245.4 440.392 1241.64 440.392C1236.46 440.392 1232.23 438.48 1228.93 434.656C1225.64 431.309 1223.99 426.529 1223.99 420.314C1223.99 411.709 1226.58 403.343 1231.76 395.216C1239.29 382.787 1247.99 372.031 1257.87 362.948C1275.75 345.738 1293.16 331.635 1310.11 320.64C1320.46 313.947 1325.87 305.103 1326.34 294.108C1326.81 290.284 1327.52 285.742 1328.46 280.484C1329.4 275.225 1329.87 270.684 1329.87 266.859C1329.87 264.947 1329.4 261.601 1328.46 256.82C1326.57 250.605 1322.58 248.454 1316.46 250.366C1307.99 254.191 1299.05 260.405 1289.64 269.01C1268.93 287.176 1248.7 312.513 1228.93 345.021C1183.76 419.597 1149.88 498.954 1127.29 583.091C1125.88 588.35 1124 594.325 1121.65 601.018C1119.29 606.755 1116 609.623 1111.76 609.623ZM1245.17 416.729C1247.05 418.641 1249.17 418.641 1251.52 416.729C1278.34 397.129 1295.75 376.094 1303.75 353.626C1306.11 352.67 1306.58 351.475 1305.16 350.04C1304.22 349.084 1303.28 349.562 1302.34 351.475C1286.81 359.601 1270.34 374.66 1252.93 396.651C1251.05 399.519 1249.4 402.148 1247.99 404.538C1246.58 406.929 1245.4 408.841 1244.46 410.275C1243.52 413.621 1243.76 415.773 1245.17 416.729Z" fill="white"/>
<path d="M1452.8 221.683C1449.98 221.683 1447.62 220.488 1445.74 218.098C1443.86 215.229 1442.68 211.883 1442.21 208.059C1442.21 199.454 1446.45 195.151 1454.92 195.151C1458.68 195.151 1461.74 196.346 1464.09 198.737C1466.92 200.649 1468.56 203.278 1469.04 206.625C1469.04 210.449 1467.39 214.034 1464.09 217.381C1461.27 220.249 1457.98 221.683 1454.21 221.683H1452.8ZM1442.92 403.821C1441.04 404.299 1438.68 404.538 1435.86 404.538C1429.27 404.538 1423.39 402.626 1418.21 398.802C1413.51 394.977 1410.22 389.958 1408.33 383.743C1406.45 378.963 1405.51 370.358 1405.51 357.928C1410.22 320.162 1417.04 290.045 1425.98 267.576C1429.74 258.971 1433.27 252.996 1436.57 249.649C1439.86 246.781 1443.39 246.542 1447.15 248.932C1448.57 249.41 1449.51 250.605 1449.98 252.518C1450.92 253.952 1451.15 255.386 1450.68 256.82L1446.45 267.576C1440.33 280.484 1435.63 294.108 1432.33 308.45C1429.51 322.313 1426.68 338.806 1423.86 357.928V362.948C1423.86 366.294 1424.33 370.836 1425.27 376.572C1425.74 379.919 1427.39 382.548 1430.21 384.46C1433.04 385.894 1436.1 386.133 1439.39 385.177C1444.1 384.699 1448.33 383.504 1452.1 381.592C1456.33 379.202 1461.04 375.855 1466.21 371.553C1482.21 358.645 1499.62 341.196 1518.44 319.206L1537.5 296.259C1543.15 288.611 1547.62 282.874 1550.91 279.049C1552.8 276.659 1556.09 273.552 1560.79 269.727C1563.15 267.337 1565.97 267.576 1569.26 270.445C1572.09 272.357 1573.03 275.225 1572.09 279.049C1571.15 282.396 1569.74 285.025 1567.85 286.937C1552.32 307.494 1538.44 324.704 1526.21 338.567C1514.44 352.431 1501.5 365.338 1487.39 377.289C1478.92 384.938 1471.15 390.914 1464.09 395.216C1457.04 399.519 1449.98 402.387 1442.92 403.821Z" fill="white"/>
<path d="M1534.36 442.544C1527.3 442.544 1523.3 438.719 1522.36 431.07C1522.36 429.158 1522.36 426.29 1522.36 422.465C1521.89 418.641 1521.89 415.295 1522.36 412.426C1528.48 368.445 1538.83 330.201 1553.42 297.694L1576 243.913C1576.94 242.478 1577.65 241.044 1578.12 239.61C1579.06 237.698 1580.24 235.786 1581.65 233.874C1584 231.483 1586.83 230.766 1590.12 231.722C1594.36 233.156 1596 235.547 1595.06 238.893C1595.06 243.674 1593.88 248.932 1591.53 254.669C1587.77 264.23 1581.65 278.571 1573.18 297.694C1563.77 320.162 1556.24 342.152 1550.59 363.665C1548.71 370.358 1547.77 375.138 1547.77 378.006C1547.77 380.875 1548.48 383.743 1549.89 386.611H1549.18L1549.89 387.328L1577.42 330.679C1587.77 311.557 1599.06 296.02 1611.3 284.069C1616.94 278.332 1622.35 273.791 1627.53 270.445C1630.35 269.01 1633.18 268.293 1636 268.293C1641.65 268.293 1646.12 271.162 1649.41 276.898C1650.82 279.289 1652 282.157 1652.94 285.503C1654.35 288.371 1655.76 291.001 1657.18 293.391C1662.35 301.996 1668 306.299 1674.12 306.299C1677.41 306.299 1681.41 305.103 1686.11 302.713C1699.29 295.542 1711.76 286.459 1723.52 275.464C1726.35 272.596 1729.41 270.206 1732.7 268.293C1733.17 267.815 1734.11 267.576 1735.52 267.576C1737.41 267.576 1739.29 268.293 1741.17 269.727C1743.99 272.596 1744.7 275.464 1743.29 278.332C1741.41 282.635 1739.29 285.742 1736.94 287.654C1725.17 300.562 1709.64 311.796 1690.35 321.357C1685.64 323.747 1680.23 324.943 1674.12 324.943C1662.35 324.943 1652.71 319.684 1645.18 309.167C1645.18 309.167 1641.65 303.43 1634.59 291.957C1630.35 291.957 1626.35 294.347 1622.59 299.128C1611.3 310.601 1600.71 325.899 1590.83 345.021L1577.42 372.27C1575.53 377.05 1568.71 391.153 1556.95 414.577C1552.71 423.182 1548.48 430.592 1544.24 436.807C1541.89 440.631 1538.59 442.544 1534.36 442.544Z" fill="white"/>
<path d="M1741.98 400.236C1733.04 400.236 1725.27 398.085 1718.68 393.782C1712.57 389.002 1708.33 382.309 1705.98 373.704C1702.68 364.143 1701.27 356.016 1701.74 349.323C1701.27 340.718 1702.92 329.723 1706.68 316.338C1715.62 287.654 1729.27 264.469 1747.62 246.781C1754.68 240.088 1761.27 235.069 1767.39 231.722C1773.97 227.898 1781.27 225.986 1789.27 225.986C1796.33 225.986 1801.74 228.376 1805.5 233.156C1809.74 237.937 1811.38 244.391 1810.44 252.518C1808.56 266.859 1802.68 279.289 1792.8 289.806C1781.03 302.713 1770.21 312.991 1760.33 320.64C1750.45 327.811 1739.15 332.113 1726.45 333.548C1723.62 334.026 1721.74 336.177 1720.8 340.001C1720.33 341.913 1720.09 344.782 1720.09 348.606C1720.09 355.299 1721.04 360.797 1722.92 365.099C1725.74 378.484 1733.74 383.982 1746.92 381.592C1755.39 379.68 1765.5 375.855 1777.27 370.119C1795.62 360.079 1812.56 347.889 1828.09 333.548L1878.2 285.503L1891.61 272.596C1895.38 269.249 1898.91 269.249 1902.2 272.596C1905.5 275.942 1906.2 279.528 1904.32 283.352C1903.38 285.264 1901.5 287.654 1898.67 290.523C1870.44 319.684 1846.91 342.152 1828.09 357.928C1811.62 371.792 1794.91 382.787 1777.97 390.914C1763.86 397.129 1751.86 400.236 1741.98 400.236ZM1735.62 312.035C1759.62 299.128 1776.09 284.547 1785.03 268.293C1789.27 261.601 1791.38 256.103 1791.38 251.801C1790.91 247.02 1788.8 245.108 1785.03 246.064C1780.8 246.542 1776.56 248.215 1772.33 251.083C1753.5 263.513 1739.39 282.396 1729.98 307.733C1729.98 310.123 1730.45 311.318 1731.39 311.318C1733.74 312.274 1735.15 312.513 1735.62 312.035Z" fill="white"/>
<path d="M2100.92 2.25694C2103.28 3.69108 2104.92 7.03745 2105.86 12.296C2105.86 17.0766 2103.98 23.7693 2100.22 32.3743C2091.28 57.711 2080.45 80.1795 2067.75 99.7797C2053.63 122.248 2040.46 153.083 2028.22 192.283C2010.34 253.474 1998.34 305.103 1992.22 347.172C1987.05 383.982 1984.46 414.577 1984.46 438.958C1984.46 448.997 1984.7 456.646 1985.17 461.905C1985.64 479.593 1988.22 497.998 1992.93 517.12C1993.87 519.032 1994.34 520.466 1994.34 521.422L1995.05 525.725C1995.05 530.505 1992.93 533.613 1988.7 535.047C1987.75 535.525 1986.58 535.764 1985.17 535.764C1980.46 535.764 1977.4 532.417 1975.99 525.725C1970.34 502.778 1967.28 481.266 1966.81 461.188C1964.93 409.558 1970.58 352.909 1983.75 291.24C1985.64 281.679 1990.34 262.557 1997.87 233.874C1999.75 227.181 2000.22 221.922 1999.28 218.098V218.815C1995.05 220.727 1991.52 223.834 1988.7 228.137C1986.34 232.439 1984.46 235.547 1983.05 237.459C1958.11 274.269 1935.52 303.908 1915.29 326.377C1912.93 329.245 1905.41 337.133 1892.7 350.04C1887.05 354.821 1882.35 357.689 1878.58 358.645H1875.76C1872.47 358.645 1869.64 357.689 1867.29 355.777C1864.47 353.387 1862.82 350.279 1862.35 346.455C1862.35 341.674 1863.06 337.133 1864.47 332.83C1874.82 298.889 1888.7 269.249 1906.11 243.913C1913.17 234.352 1920.7 226.703 1928.7 220.966C1935.29 216.664 1940.7 214.512 1944.93 214.512C1951.52 214.512 1957.4 220.01 1962.58 231.005C1965.4 230.049 1967.52 228.376 1968.93 225.986C1970.34 223.117 1971.28 221.444 1971.75 220.966L1999.28 180.093C2019.52 149.497 2033.63 121.77 2041.63 96.9114C2049.63 71.0965 2060.22 46.9548 2073.4 24.4864C2078.1 14.4473 2083.04 7.51551 2088.22 3.69108C2090.1 1.77886 2092.45 0.822754 2095.28 0.822754C2097.63 0.822754 2099.51 1.30081 2100.92 2.25694ZM1890.58 327.811C1920.7 291.479 1940.93 265.903 1951.29 251.083C1952.23 249.171 1954.11 246.303 1956.93 242.478C1960.23 238.654 1962.11 235.069 1962.58 231.722C1960.7 231.244 1957.87 231.005 1954.11 231.005C1947.52 231.005 1941.64 232.917 1936.46 236.742C1931.29 240.566 1926.11 245.825 1920.93 252.518C1919.99 252.996 1919.05 254.191 1918.11 256.103C1908.7 270.923 1899.29 290.284 1889.88 314.186L1888.47 319.923C1888.47 322.791 1889.17 325.421 1890.58 327.811Z" fill="white"/>
</svg>
