<svg width="2106" height="609" viewBox="0 0 2106 609" fill="none" xmlns="http://www.w3.org/2000/svg">
<path d="M151.498 86.8014L87.4355 247.994L23.3734 86.1326C20.7042 80.1129 14.6984 76.0999 8.69256 76.0999C2.01944 76.0999 -1.31713 80.1129 1.35212 86.1326L77.4258 278.092V407.848C77.4258 414.537 81.4297 418.55 88.1028 418.55C94.1086 418.55 98.1125 414.537 98.1125 407.848V278.092L174.186 86.8014C176.855 80.1129 173.519 76.0999 166.846 76.0999C160.173 76.0999 154.167 80.1129 151.498 86.8014Z" fill="#A0522D"/>
<path d="M357.958 86.8014C357.958 80.1129 353.954 76.0999 347.281 76.0999H280.55C270.54 76.0999 263.867 82.7883 263.867 92.8211V401.829C263.867 411.862 270.54 418.55 280.55 418.55H347.281C353.954 418.55 357.958 414.537 357.958 407.848C357.958 401.16 353.954 397.147 347.281 397.147H283.886V251.338H322.59C328.596 251.338 332.6 247.325 332.6 240.636C332.6 234.617 328.596 230.604 322.59 230.604H283.886V97.503H347.281C353.954 97.503 357.958 93.4899 357.958 86.8014Z" fill="#A0522D"/>
<path d="M527.143 246.656L521.137 240.636C473.09 192.479 463.748 171.076 463.748 147.667C463.748 120.244 485.769 98.1718 513.129 98.1718C536.485 98.1718 556.504 114.893 561.176 136.296C562.51 142.316 566.514 146.329 573.187 146.329C579.193 146.329 583.197 142.316 582.53 136.296C577.191 102.854 546.495 78.1064 513.129 78.1064C474.425 78.1064 443.061 109.542 443.061 148.335C443.061 193.148 471.756 221.909 499.783 249.331L505.789 255.351C553.835 303.508 563.178 324.911 563.178 348.321C563.178 375.744 541.156 397.816 513.796 397.816C490.44 397.816 470.421 381.095 465.75 359.691C464.415 353.672 460.411 349.659 454.406 349.659C447.732 349.659 443.728 353.672 444.396 359.691C449.734 393.134 480.431 417.881 513.796 417.881C552.5 417.881 583.864 386.445 583.864 347.652C583.864 302.839 555.17 274.079 527.143 246.656Z" fill="#A0522D"/>
<path d="M694.572 220.86C691.749 220.86 689.396 219.665 687.514 217.275C685.632 214.407 684.455 211.06 683.985 207.236C683.985 198.631 688.22 194.328 696.69 194.328C700.454 194.328 703.513 195.524 705.866 197.914C708.689 199.826 710.336 202.455 710.807 205.802C710.807 209.626 709.16 213.212 705.866 216.558C703.042 219.426 699.748 220.86 695.984 220.86H694.572ZM684.69 402.999C682.808 403.477 680.455 403.716 677.632 403.716C671.044 403.716 665.162 401.803 659.986 397.979C655.28 394.155 651.986 389.135 650.104 382.92C648.222 378.14 647.281 369.535 647.281 357.105C651.986 319.339 658.81 289.222 667.75 266.754C671.515 258.149 675.044 252.173 678.338 248.827C681.632 245.958 685.161 245.719 688.925 248.109C690.337 248.587 691.278 249.783 691.749 251.695C692.69 253.129 692.925 254.563 692.455 255.997L688.22 266.754C682.102 279.661 677.397 293.285 674.103 307.627C671.279 321.491 668.456 337.983 665.633 357.105V362.125C665.633 365.471 666.103 370.013 667.044 375.75C667.515 379.096 669.162 381.725 671.985 383.637C674.809 385.072 677.867 385.311 681.161 384.355C685.867 383.876 690.102 382.681 693.866 380.769C698.101 378.379 702.807 375.032 707.983 370.73C723.982 357.823 741.393 340.374 760.215 318.383L779.273 295.437C784.92 287.788 789.39 282.051 792.684 278.227C794.566 275.836 797.86 272.729 802.566 268.905C804.919 266.514 807.742 266.753 811.036 269.622C813.86 271.534 814.801 274.402 813.86 278.227C812.918 281.573 811.507 284.202 809.624 286.115C794.096 306.671 780.214 323.881 767.98 337.744C756.216 351.608 743.275 364.515 729.158 376.467C720.688 384.115 712.924 390.091 705.866 394.394C698.807 398.696 691.749 401.564 684.69 402.999Z" fill="#7D98A8"/>
<path d="M781.777 420.208C779.895 421.643 777.542 422.36 774.718 422.36C772.366 422.36 770.248 421.643 768.366 420.208C766.484 418.296 765.307 415.667 764.837 412.321C764.366 410.408 764.131 407.301 764.131 402.999C765.072 394.394 766.013 388.418 766.954 385.072L771.189 370.013C774.483 355.671 778.012 342.525 781.777 330.574C790.247 306.671 803.423 270.817 821.304 223.012C822.716 219.665 826.245 212.734 831.892 202.216C833.303 199.826 835.186 198.392 837.538 197.914C839.891 196.958 842.009 197.197 843.891 198.631C848.126 201.021 849.302 205.085 847.42 210.821L843.185 219.426L801.54 329.139C801.07 330.574 800.129 333.203 798.717 337.027C797.305 340.852 796.599 344.437 796.599 347.783C796.599 351.13 797.07 353.759 798.011 355.671C812.599 328.9 830.95 302.368 853.067 276.075C863.419 264.602 872.83 256.475 881.301 251.695C884.594 249.783 888.124 248.827 891.888 248.827C898.476 248.827 903.887 252.651 908.123 260.3C910.005 264.124 911.416 270.1 912.358 278.227L915.887 313.364C916.828 321.969 918.945 329.378 922.239 335.593C924.592 340.852 928.592 342.525 934.239 340.613C941.297 338.222 949.061 333.203 957.531 325.554L969.531 314.081L994.235 290.417C1000.82 284.68 1005.53 280.378 1008.35 277.51C1011.18 274.641 1013.06 272.729 1014 271.773C1017.29 268.427 1020.59 268.427 1023.88 271.773C1027.17 274.641 1028.12 277.988 1026.7 281.812C1025.29 285.637 1023.17 288.983 1020.35 291.851C1016.12 296.154 1001.53 309.778 976.589 332.725L963.178 344.915C954.708 353.042 945.297 358.062 934.945 359.974L928.592 360.691C919.181 360.691 911.652 355.671 906.005 345.632C901.299 336.549 898.711 327.705 898.241 319.1C896.358 301.412 894.712 287.31 893.3 276.793C892.829 273.924 891.418 272.251 889.065 271.773C887.183 270.817 885.3 271.295 883.418 273.207C873.536 282.29 866.478 289.461 862.243 294.72C837.774 323.881 816.363 357.344 798.011 395.111C797.07 396.545 795.188 400.369 792.364 406.584C790.012 412.321 786.482 416.862 781.777 420.208Z" fill="#7D98A8"/>
<path d="M975.696 483.311C967.696 478.531 963.697 470.643 963.697 459.648L964.402 452.477C965.344 444.828 969.108 436.462 975.696 427.379C987.46 409.691 999.93 395.828 1013.11 385.789C1018.28 381.964 1021.58 377.662 1022.99 372.881C1024.87 368.101 1025.81 362.125 1025.81 354.954C1025.34 337.744 1022.52 316.232 1017.34 290.417C1016.87 287.549 1016.16 282.529 1015.22 275.358C1014.28 268.188 1013.81 261.973 1013.81 256.714C1013.81 229.465 1026.28 206.997 1051.22 189.309C1058.28 185.006 1065.57 182.855 1073.1 182.855C1077.34 182.855 1080.4 183.094 1082.28 183.572C1084.63 184.05 1087.22 185.724 1090.04 188.592C1091.45 190.026 1092.16 191.46 1092.16 192.894C1092.16 194.328 1091.69 195.763 1090.75 197.197C1089.81 198.631 1088.63 199.587 1087.22 200.065C1084.4 201.021 1082.28 201.26 1080.87 200.782C1070.04 200.304 1060.4 204.368 1051.93 212.973C1040.16 224.446 1033.57 236.636 1032.16 249.544L1031.46 258.866C1031.46 262.212 1031.93 266.753 1032.87 272.49C1038.52 303.086 1042.28 328.661 1044.16 349.218C1044.16 349.696 1045.34 351.847 1047.69 355.671C1051.93 353.281 1055.46 351.13 1058.28 349.218L1160.63 276.075L1169.8 270.339C1172.63 268.427 1175.45 268.905 1178.27 271.773C1180.15 273.207 1181.1 274.88 1181.1 276.793C1181.57 278.705 1181.1 280.617 1179.68 282.529C1177.33 286.354 1173.57 289.939 1168.39 293.285L1114.04 332.725L1055.46 375.032C1047.46 380.769 1042.75 388.418 1041.34 397.979C1039.93 414.233 1035.46 430.726 1027.93 447.457C1022.28 460.843 1015.46 470.882 1007.46 477.575C1000.87 483.789 994.048 486.897 986.989 486.897C983.225 486.897 979.46 485.702 975.696 483.311ZM984.872 464.667C986.754 467.536 989.577 467.536 993.342 464.667C999.93 459.409 1005.58 451.521 1010.28 441.004C1014.99 430.965 1017.58 420.208 1018.05 408.735C1001.58 420.687 989.813 435.745 982.754 453.911C981.813 455.823 981.813 457.497 982.754 458.931C982.754 461.321 983.46 463.233 984.872 464.667Z" fill="#7D98A8"/>
<path d="M1111.76 608.8C1106.12 608.8 1103.29 604.976 1103.29 597.327C1103.29 587.288 1104 577.249 1105.41 567.21C1116.7 463.472 1138.11 363.559 1169.64 267.471C1173.88 254.085 1181.17 234.485 1191.52 208.67L1200.7 184.289C1203.05 178.553 1206.58 171.621 1211.29 163.494C1212.7 160.626 1215.05 159.192 1218.35 159.192C1223.99 159.192 1225.87 162.777 1223.99 169.948C1223.99 170.904 1223.52 172.338 1222.58 174.25C1190.11 254.563 1163.53 344.198 1142.82 443.155C1142.35 445.545 1141.41 450.326 1140 457.497C1138.11 464.667 1137.41 471.36 1137.88 477.575C1141.64 475.663 1144.23 473.033 1145.64 469.687C1146.59 466.341 1147.29 464.189 1147.76 463.233C1162.82 425.945 1184.23 383.637 1211.99 336.31C1228.46 307.149 1247.29 282.529 1268.46 262.451C1280.7 250.978 1290.34 243.09 1297.4 238.787C1304.93 234.485 1310.34 231.856 1313.63 230.9C1317.87 229.465 1321.4 228.748 1324.22 228.748C1334.57 228.748 1341.63 235.202 1345.4 248.109C1347.28 253.368 1348.22 259.344 1348.22 266.036C1348.22 270.817 1347.99 275.119 1347.51 278.944C1347.04 282.29 1346.57 285.159 1346.1 287.549V288.983C1346.1 291.373 1346.81 293.046 1348.22 294.002C1349.63 294.481 1351.28 294.241 1353.16 293.285C1355.98 292.329 1360.22 290.417 1365.87 287.549L1415.28 268.188C1417.16 267.232 1419.98 266.275 1423.75 265.319C1426.57 264.363 1428.92 263.885 1430.8 263.885H1431.51C1433.86 263.885 1435.74 264.841 1437.16 266.754C1439.04 268.188 1440.22 269.861 1440.69 271.773V273.207C1440.69 277.032 1438.8 279.661 1435.04 281.095C1415.75 287.788 1403.51 292.329 1398.34 294.72C1388.92 298.544 1381.87 301.651 1377.16 304.042L1355.98 313.364C1344.69 318.622 1336.69 327.466 1331.99 339.896C1320.22 372.881 1299.99 401.086 1271.28 424.511C1262.81 430.726 1256.46 434.789 1252.23 436.701C1248.93 438.613 1245.4 439.57 1241.64 439.57C1236.46 439.57 1232.23 437.657 1228.93 433.833C1225.64 430.487 1223.99 425.706 1223.99 419.491C1223.99 410.886 1226.58 402.52 1231.76 394.394C1239.29 381.964 1247.99 371.208 1257.87 362.125C1275.75 344.915 1293.16 330.813 1310.11 319.817C1320.46 313.125 1325.87 304.281 1326.34 293.285C1326.81 289.461 1327.52 284.919 1328.46 279.661C1329.4 274.402 1329.87 269.861 1329.87 266.036C1329.87 264.124 1329.4 260.778 1328.46 255.997C1326.57 249.783 1322.58 247.631 1316.46 249.544C1307.99 253.368 1299.05 259.583 1289.64 268.188C1268.93 286.354 1248.7 311.69 1228.93 344.198C1183.76 418.774 1149.88 498.131 1127.29 582.268C1125.88 587.527 1124 593.503 1121.65 600.195C1119.29 605.932 1116 608.8 1111.76 608.8ZM1245.17 415.906C1247.05 417.818 1249.17 417.818 1251.52 415.906C1278.34 396.306 1295.75 375.271 1303.75 352.803C1306.11 351.847 1306.58 350.652 1305.16 349.218C1304.22 348.262 1303.28 348.74 1302.34 350.652C1286.81 358.779 1270.34 373.837 1252.93 395.828C1251.05 398.696 1249.4 401.325 1247.99 403.716C1246.58 406.106 1245.4 408.018 1244.46 409.452C1243.52 412.799 1243.76 414.95 1245.17 415.906Z" fill="#7D98A8"/>
<path d="M1452.8 220.86C1449.98 220.86 1447.62 219.665 1445.74 217.275C1443.86 214.407 1442.68 211.06 1442.21 207.236C1442.21 198.631 1446.45 194.328 1454.92 194.328C1458.68 194.328 1461.74 195.524 1464.09 197.914C1466.92 199.826 1468.56 202.455 1469.04 205.802C1469.04 209.626 1467.39 213.212 1464.09 216.558C1461.27 219.426 1457.98 220.86 1454.21 220.86H1452.8ZM1442.92 402.999C1441.04 403.477 1438.68 403.716 1435.86 403.716C1429.27 403.716 1423.39 401.803 1418.21 397.979C1413.51 394.155 1410.22 389.135 1408.33 382.92C1406.45 378.14 1405.51 369.535 1405.51 357.105C1410.22 319.339 1417.04 289.222 1425.98 266.754C1429.74 258.149 1433.27 252.173 1436.57 248.827C1439.86 245.958 1443.39 245.719 1447.15 248.109C1448.57 248.587 1449.51 249.783 1449.98 251.695C1450.92 253.129 1451.15 254.563 1450.68 255.997L1446.45 266.754C1440.33 279.661 1435.63 293.285 1432.33 307.627C1429.51 321.491 1426.68 337.983 1423.86 357.105V362.125C1423.86 365.471 1424.33 370.013 1425.27 375.75C1425.74 379.096 1427.39 381.725 1430.21 383.637C1433.04 385.072 1436.1 385.311 1439.39 384.355C1444.1 383.876 1448.33 382.681 1452.1 380.769C1456.33 378.379 1461.04 375.032 1466.21 370.73C1482.21 357.823 1499.62 340.374 1518.44 318.383L1537.5 295.437C1543.15 287.788 1547.62 282.051 1550.91 278.227C1552.8 275.836 1556.09 272.729 1560.79 268.905C1563.15 266.514 1565.97 266.753 1569.26 269.622C1572.09 271.534 1573.03 274.402 1572.09 278.227C1571.15 281.573 1569.74 284.202 1567.85 286.115C1552.32 306.671 1538.44 323.881 1526.21 337.744C1514.44 351.608 1501.5 364.515 1487.39 376.467C1478.92 384.115 1471.15 390.091 1464.09 394.394C1457.04 398.696 1449.98 401.564 1442.92 402.999Z" fill="#7D98A8"/>
<path d="M1534.36 441.721C1527.3 441.721 1523.3 437.896 1522.36 430.248C1522.36 428.335 1522.36 425.467 1522.36 421.643C1521.89 417.818 1521.89 414.472 1522.36 411.603C1528.48 367.623 1538.83 329.378 1553.42 296.871L1576 243.09C1576.94 241.656 1577.65 240.222 1578.12 238.787C1579.06 236.875 1580.24 234.963 1581.65 233.051C1584 230.66 1586.83 229.943 1590.12 230.9C1594.36 232.334 1596 234.724 1595.06 238.07C1595.06 242.851 1593.88 248.109 1591.53 253.846C1587.77 263.407 1581.65 277.749 1573.18 296.871C1563.77 319.339 1556.24 341.33 1550.59 362.842C1548.71 369.535 1547.77 374.315 1547.77 377.184C1547.77 380.052 1548.48 382.92 1549.89 385.789H1549.18L1549.89 386.506L1577.42 329.856C1587.77 310.734 1599.06 295.198 1611.3 283.246C1616.94 277.51 1622.35 272.968 1627.53 269.622C1630.35 268.188 1633.18 267.471 1636 267.471C1641.65 267.471 1646.12 270.339 1649.41 276.075C1650.82 278.466 1652 281.334 1652.94 284.68C1654.35 287.549 1655.76 290.178 1657.18 292.568C1662.35 301.173 1668 305.476 1674.12 305.476C1677.41 305.476 1681.41 304.281 1686.11 301.89C1699.29 294.72 1711.76 285.637 1723.52 274.641C1726.35 271.773 1729.41 269.383 1732.7 267.471C1733.17 266.993 1734.11 266.754 1735.52 266.754C1737.41 266.754 1739.29 267.471 1741.17 268.905C1743.99 271.773 1744.7 274.641 1743.29 277.51C1741.41 281.812 1739.29 284.919 1736.94 286.832C1725.17 299.739 1709.64 310.973 1690.35 320.534C1685.64 322.925 1680.23 324.12 1674.12 324.12C1662.35 324.12 1652.71 318.861 1645.18 308.344C1645.18 308.344 1641.65 302.607 1634.59 291.134C1630.35 291.134 1626.35 293.524 1622.59 298.305C1611.3 309.778 1600.71 325.076 1590.83 344.198L1577.42 371.447C1575.53 376.228 1568.71 390.33 1556.95 413.755C1552.71 422.36 1548.48 429.77 1544.24 435.984C1541.89 439.809 1538.59 441.721 1534.36 441.721Z" fill="#7D98A8"/>
<path d="M1741.98 399.413C1733.04 399.413 1725.27 397.262 1718.68 392.959C1712.57 388.179 1708.33 381.486 1705.98 372.881C1702.68 363.32 1701.27 355.193 1701.74 348.501C1701.27 339.896 1702.92 328.9 1706.68 315.515C1715.62 286.832 1729.27 263.646 1747.62 245.958C1754.68 239.265 1761.27 234.246 1767.39 230.9C1773.97 227.075 1781.27 225.163 1789.27 225.163C1796.33 225.163 1801.74 227.553 1805.5 232.334C1809.74 237.114 1811.38 243.568 1810.44 251.695C1808.56 266.036 1802.68 278.466 1792.8 288.983C1781.03 301.89 1770.21 312.168 1760.33 319.817C1750.45 326.988 1739.15 331.291 1726.45 332.725C1723.62 333.203 1721.74 335.354 1720.8 339.178C1720.33 341.091 1720.09 343.959 1720.09 347.783C1720.09 354.476 1721.04 359.974 1722.92 364.276C1725.74 377.662 1733.74 383.159 1746.92 380.769C1755.39 378.857 1765.5 375.032 1777.27 369.296C1795.62 359.257 1812.56 347.066 1828.09 332.725L1878.2 284.68L1891.61 271.773C1895.38 268.427 1898.91 268.427 1902.2 271.773C1905.5 275.119 1906.2 278.705 1904.32 282.529C1903.38 284.441 1901.5 286.832 1898.67 289.7C1870.44 318.861 1846.91 341.33 1828.09 357.105C1811.62 370.969 1794.91 381.964 1777.97 390.091C1763.86 396.306 1751.86 399.413 1741.98 399.413ZM1735.62 311.212C1759.62 298.305 1776.09 283.724 1785.03 267.471C1789.27 260.778 1791.38 255.28 1791.38 250.978C1790.91 246.197 1788.8 244.285 1785.03 245.241C1780.8 245.719 1776.56 247.392 1772.33 250.261C1753.5 262.69 1739.39 281.573 1729.98 306.91C1729.98 309.3 1730.45 310.495 1731.39 310.495C1733.74 311.451 1735.15 311.69 1735.62 311.212Z" fill="#7D98A8"/>
<path d="M2100.92 1.43418C2103.28 2.86832 2104.92 6.21469 2105.86 11.4733C2105.86 16.2538 2103.98 22.9466 2100.22 31.5515C2091.28 56.8883 2080.45 79.3568 2067.75 98.9569C2053.63 121.425 2040.46 152.26 2028.22 191.46C2010.34 252.651 1998.34 304.281 1992.22 346.349C1987.05 383.159 1984.46 413.755 1984.46 438.135C1984.46 448.175 1984.7 455.823 1985.17 461.082C1985.64 478.77 1988.22 497.175 1992.93 516.297C1993.87 518.209 1994.34 519.643 1994.34 520.6L1995.05 524.902C1995.05 529.682 1992.93 532.79 1988.7 534.224C1987.75 534.702 1986.58 534.941 1985.17 534.941C1980.46 534.941 1977.4 531.595 1975.99 524.902C1970.34 501.955 1967.28 480.443 1966.81 460.365C1964.93 408.735 1970.58 352.086 1983.75 290.417C1985.64 280.856 1990.34 261.734 1997.87 233.051C1999.75 226.358 2000.22 221.099 1999.28 217.275V217.992C1995.05 219.904 1991.52 223.012 1988.7 227.314C1986.34 231.617 1984.46 234.724 1983.05 236.636C1958.11 273.446 1935.52 303.085 1915.29 325.554C1912.93 328.422 1905.41 336.31 1892.7 349.218C1887.05 353.998 1882.35 356.866 1878.58 357.823H1875.76C1872.47 357.823 1869.64 356.866 1867.29 354.954C1864.47 352.564 1862.82 349.457 1862.35 345.632C1862.35 340.852 1863.06 336.31 1864.47 332.008C1874.82 298.066 1888.7 268.427 1906.11 243.09C1913.17 233.529 1920.7 225.88 1928.7 220.143C1935.29 215.841 1940.7 213.69 1944.93 213.69C1951.52 213.69 1957.4 219.187 1962.58 230.182C1965.4 229.226 1967.52 227.553 1968.93 225.163C1970.34 222.295 1971.28 220.621 1971.75 220.143L1999.28 179.27C2019.52 148.674 2033.63 120.947 2041.63 96.0886C2049.63 70.2738 2060.22 46.1321 2073.4 23.6636C2078.1 13.6245 2083.04 6.69275 2088.22 2.86832C2090.1 0.956108 2092.45 0 2095.28 0C2097.63 0 2099.51 0.478061 2100.92 1.43418ZM1890.58 326.988C1920.7 290.656 1940.93 265.08 1951.29 250.261C1952.23 248.348 1954.11 245.48 1956.93 241.656C1960.23 237.831 1962.11 234.246 1962.58 230.9C1960.7 230.421 1957.87 230.182 1954.11 230.182C1947.52 230.182 1941.64 232.095 1936.46 235.919C1931.29 239.743 1926.11 245.002 1920.93 251.695C1919.99 252.173 1919.05 253.368 1918.11 255.28C1908.7 270.1 1899.29 289.461 1889.88 313.364L1888.47 319.1C1888.47 321.969 1889.17 324.598 1890.58 326.988Z" fill="#7D98A8"/>
</svg>
